# AST/ASF file generated using VICON BodyLanguage
# -----------------------------------------------
:version 1.10
:name VICON
:units
  mass 1.0
  length 0.45
  angle deg
:documentation
   .ast/.asf automatically generated from VICON data using
   VICON BodyBuilder and BodyLanguage model FoxedUp or BRILLIANT.MOD
:root
   order TX TY TZ RX RY RZ
   axis XYZ
   position 0 0 0  
   orientation 0 0 0 
:bonedata
  begin
     id 1 
     name lhipjoint
     direction 0.64773 -0.699417 0.302095 
     length 2.48597 
     axis 0 0 0  XYZ
  end
  begin
     id 2 
     name lfemur
     direction 0.34202 -0.939693 0  
     length 6.71947  
     axis 0 0 20  XYZ
    dof rx ry rz
    limits (-160.0 20.0)
           (-70.0 70.0)
           (-60.0 70.0)
  end
  begin
     id 3 
     name ltibia
     direction 0.34202 -0.939693 0   
     length 8.08777   
     axis 0 0 20   XYZ
    dof rx
    limits (-10.0 170.0)
  end
  begin
     id 4 
     name lfoot
     direction 0.0808503 -0.222134 0.971658   
     length 2.08264   
     axis -90 7.62852e-016 20   XYZ
    dof rx rz
    limits (-45.0 90.0)
           (-70.0 20.0)
  end
  begin
     id 5 
     name ltoes
     direction 1.53502e-011 -4.22007e-011 1   
     length 1.04662   
     axis -90 7.62852e-016 20   XYZ
    dof rx
    limits (-90.0 20.0)
  end
  begin
     id 6 
     name rhipjoint
     direction -0.610924 -0.726792 0.313919   
     length 2.39233  
     axis 0 0 0  XYZ 
  end
  begin
     id 7 
     name rfemur
     direction -0.34202 -0.939693 0   
     length 6.96955   
     axis 0 0 -20   XYZ
    dof rx ry rz
    limits (-160.0 20.0)
           (-70.0 70.0)
           (-70.0 60.0)
  end
  begin
     id 8 
     name rtibia
     direction -0.34202 -0.939693 0   
     length 8.19584   
     axis 0 0 -20   XYZ
    dof rx
    limits (-10.0 170.0)
 end
 begin
     id 9 
     name rfoot
     direction -0.077777 -0.213691 0.9738   
     length 2.07539  
     axis -90 -7.62852e-016 -20   XYZ
    dof rx rz
    limits (-45.0 90.0)
           (-20.0 70.0)
  end
  begin
     id 10 
     name rtoes
     direction -1.53558e-011 -4.22006e-011 1   
     length 1.04381   
     axis -90 -7.62852e-016 -20   XYZ
    dof rx
    limits (-90.0 20.0)
  end
  begin
     id 11 
     name lowerback
     direction -0.00971646 0.996074 0.0879841   
     length 1.67643   
     axis 0 0 0   XYZ
    dof rx ry rz
    limits (-20.0 45.0)
           (-30.0 30.0)
           (-30.0 30.0)
  end
  begin
     id 12 
     name upperback
     direction 0.0127391 0.991676 0.128127   
     length 1.63741   
     axis 0 0 0   XYZ
    dof rx ry rz
    limits (-20.0 45.0)
           (-30.0 30.0)
           (-30.0 30.0)
  end
  begin
     id 13 
     name thorax
     direction 0.0167583 0.996049 0.0872067   
     length 1.65931   
     axis 0 0 0   XYZ
    dof rx ry rz
    limits (-20.0 45.0)
           (-30.0 30.0)
           (-30.0 30.0)
  end
  begin
     id 14 
     name lowerneck
     direction -0.0317829 0.998312 0.0486079   
     length 1.79021   
     axis 0 0 0   XYZ
    dof rx ry rz
    limits (-20.0 45.0)
           (-30.0 30.0)
           (-30.0 30.0)
  end
  begin
     id 15 
     name upperneck
     direction 0.0896851 0.972452 -0.215159   
     length 1.78797   
     axis 0 0 0   XYZ
    dof rx ry rz
    limits (-20.0 45.0)
           (-30.0 30.0)
           (-30.0 30.0)
  end
  begin
     id 16
     name head
     direction 0.0310949 0.996503 -0.0775582  
     length 1.81549  
     axis 0 0 0   XYZ
    dof rx ry rz
    limits (-20.0 45.0)
           (-30.0 30.0)
           (-30.0 30.0)
  end
  begin
     id 17 
     name lclavicle
     direction 0.853638 0.502051 -0.138733  
     length 3.31627  
     axis 0 0 0   XYZ
    dof ry rz
    limits (-20.0 10.0)
           (0.0 20.0)
  end
  begin
     id 18 
     name lhumerus
     direction 1 -4.48962e-011 -1.41788e-018   
     length 5.54893   
     axis 180 -30 -90   XYZ
    dof rx ry rz
    limits (-60.0 90.0)
           (-90.0 90.0)
           (-90.0 90.0)
  end
  begin
     id 19
     name lradius
     direction 1 -4.48962e-011 -4.95754e-027   
     length 3.02898   
     axis 180 -30 -90   XYZ
    dof rx
    limits (-10.0 170.0)
  end
  begin
     id 20
     name lwrist
     direction 1 -4.48952e-011 -1.03764e-026   
     length 1.51449   
     axis 9.09556e-015 90 90   XYZ
    dof ry
    limits (-180.0 0.0)
 end
  begin
     id 21 
     name lhand
     direction 1 -4.4902e-011 -2.07528e-026   
     length 0.640951   
     axis 1.3242e-014 90 90   XYZ
    dof rx rz
    limits (-90.0 90.0)
           (-45.0 45.0)
  end
  begin
     id 22 
     name lfingers
     direction 1 -4.49014e-011 -4.15056e-026   
     length 0.516751   
     axis 2.64841e-014 90 90   XYZ
    dof rx
    limits (0.0 90.0)
  end
  begin
     id 23
     name lthumb
     direction 0.707107 -6.35008e-011 0.707107   
     length 0.741954   
     axis -90 45 2.85299e-015   XYZ
    dof rx rz
    limits (-45.0 45.0)
           (-45.0 45.0)
  end
  begin
     id 24 
     name rclavicle
     direction -0.888531 0.455324 -0.0565039   
     length 3.20126  
     axis 0 0 0   XYZ 
    dof ry rz
    limits (-10.0 20.0)
           (-20.0 0.0)
  end
  begin
     id 25 
     name rhumerus
     direction -1 -4.48946e-011 -8.98298e-028  
     length 5.3519   
     axis 180 30 90   XYZ
    dof rx ry rz
    limits (-90.0 60.0)
           (-90.0 90.0)
           (-90.0 90.0)
  end
  begin
     id 26 
     name rradius
     direction -1 -4.4899e-011 -3.18779e-027   
     length 3.02531   
     axis 180 30 90   XYZ
    dof rx
    limits (-10.0 170.0)
  end
  begin
     id 27 
     name rwrist
     direction -1 -4.4897e-011 -1.03764e-026   
     length 1.51266   
     axis 9.09556e-015 -90 -90   XYZ
    dof ry
    limits (-180.0 0.0)
  end
  begin
     id 28
     name rhand
     direction -1 -4.48941e-011 -2.07528e-026   
     length 0.78389   
     axis 1.3242e-014 -90 -90   XYZ
    dof rx rz
    limits (-90.0 90.0)
           (-45.0 45.0)
  end
  begin
     id 29
     name rfingers
     direction -1 -4.49012e-011 -4.15056e-026   
     length 0.631992   
     axis 2.64841e-014 -90 -90   XYZ
    dof rx
    limits (0.0 90.0)
  end
  begin
     id 30
     name rthumb
     direction -0.707107 -6.3496e-011 0.707107   
     length 0.907418   
     axis -90 -45 -2.85299e-015   XYZ
    dof rx rz
    limits (-45.0 45.0)
           (-45.0 45.0)
  end
:hierarchy
  begin
    root lhipjoint rhipjoint lowerback
    lhipjoint lfemur
    lfemur ltibia
    ltibia lfoot
    lfoot ltoes
    rhipjoint rfemur
    rfemur rtibia
    rtibia rfoot
    rfoot rtoes
    lowerback upperback
    upperback thorax
    thorax lowerneck lclavicle rclavicle
    lowerneck upperneck
    upperneck head
    lclavicle lhumerus
    lhumerus lradius
    lradius lwrist
    lwrist lhand lthumb
    lhand lfingers
    rclavicle rhumerus
    rhumerus rradius
    rradius rwrist
    rwrist rhand rthumb
    rhand rfingers
  end

#!OML:ASF E:\Style3\Style3.ASF
:FULLY-SPECIFIED
:DEGREES
1029
root 0.817917 17.7535 0.817651 -119.141 87.4431 -142.578
lowerback -9.81101 -1.26409 -0.52465
upperback -15.9714 -0.257952 2.2454
thorax -11.8123 0.643552 2.63027
lowerneck -16.478 -2.52031 -3.59244
upperneck 25.6518 -4.04742 6.64128
head 11.2672 -1.19221 2.48728
rclavicle 7.95139e-015 -2.8625e-014
rhumerus -96.7793 -46.1256 -649.68
rradius 21.2196
rwrist -9.60257
rhand -11.9039 15.1897
rfingers 7.12502
rthumb 14.1496 -14.3085
lclavicle 7.95139e-015 -2.8625e-014
lhumerus -110.025 41.93 638.483
lradius 19.4009
lwrist 7.39879
lhand -4.75914 19.4053
lfingers 7.12502
lthumb 21.0248 48.2856
rfemur -20.0211 14.8229 17.3589
rtibia 12.9572
rfoot -17.0766 -25.0413
rtoes -11.6272
lfemur -12.9463 1.38023 -13.5477
ltibia -6.36111e-014
lfoot -9.68095 -0.156504
ltoes -2.65792
1030
root 0.816519 17.754 0.81769 -120.009 87.4501 -143.338
lowerback -9.78728 -1.30279 -0.57986
upperback -15.9052 -0.314906 2.30946
thorax -11.7416 0.620832 2.73144
lowerneck -16.468 -2.44811 -3.59168
upperneck 25.6459 -3.95271 6.67374
head 11.2577 -1.14537 2.513
rclavicle 1.00386e-014 -2.14687e-014
rhumerus -95.7857 -46.6492 -650.646
rradius 21.5854
rwrist -10.6268
rhand -12.0964 15.0816
rfingers 7.12502
rthumb 13.9641 -14.4295
lclavicle 1.00386e-014 -2.14687e-014
lhumerus -108.815 42.7436 639.958
lradius 19.7115
lwrist 8.71127
lhand -4.8772 19.4667
lfingers 7.12502
lthumb 20.9114 48.3596
rfemur -19.8901 14.772 17.365
rtibia 12.9241
rfoot -17.0251 -25.0108
rtoes -11.7317
lfemur -12.8382 1.40696 -13.5994
ltibia 5.08889e-014
lfoot -9.6694 -0.166181
ltoes -3.4272
1031
root 0.812021 17.7556 0.818599 -121.184 87.4741 -144.475
lowerback -9.85492 -1.34267 -0.654862
upperback -15.8168 -0.375917 2.35791
thorax -11.5896 0.595406 2.82544
lowerneck -16.4904 -2.35623 -3.55789
upperneck 25.5546 -3.83142 6.68165
head 11.2194 -1.08894 2.52549
rclavicle -1.64991e-014 2.8625e-014
rhumerus -94.5352 -47.1995 -652.081
rradius 22.0406
rwrist -11.9123
rhand -12.5134 15.0156
rfingers 7.12502
rthumb 13.5622 -14.5227
lclavicle -1.64991e-014 2.8625e-014
lhumerus -107.966 43.5224 640.901
lradius 20.0961
lwrist 9.66198
lhand -4.85393 19.5541
lfingers 7.12502
lthumb 20.9338 48.4445
rfemur -19.8954 14.6881 17.3376
rtibia 13.0047
rfoot -17.0837 -24.9389
rtoes -11.5391
lfemur -12.8307 1.43854 -13.6726
ltibia 2.38542e-014
lfoot -9.64913 -0.18939
ltoes -3.73235
1032
root 0.802932 17.7584 0.820606 -121.99 87.4604 -145.279
lowerback -9.87746 -1.3879 -0.695384
upperback -15.7531 -0.439972 2.42834
thorax -11.4946 0.568162 2.92454
lowerneck -16.5807 -2.28822 -3.5963
upperneck 25.5763 -3.72492 6.68517
head 11.2395 -1.04307 2.54918
rclavicle 3.8763e-015 -1.19271e-014
rhumerus -93.1396 -47.7866 -653.739
rradius 22.6118
rwrist -13.0681
rhand -13.0686 15.0439
rfingers 7.12502
rthumb 13.027 -14.5293
lclavicle 3.8763e-015 -1.19271e-014
lhumerus -106.73 44.3406 642.382
lradius 20.5237
lwrist 10.9942
lhand -4.73386 19.6064
lfingers 7.12502
lthumb 21.0491 48.484
rfemur -20.0418 14.6775 17.3229
rtibia 13.2098
rfoot -17.1722 -24.9498
rtoes -11.3503
lfemur -12.9056 1.47426 -13.6916
ltibia -3.18055e-015
lfoot -9.58483 -0.238546
ltoes -3.64177
1033
root 0.79836 17.7666 0.82029 -122.361 87.4612 -145.581
lowerback -9.8003 -1.42247 -0.687411
upperback -15.7401 -0.485352 2.49658
thorax -11.5213 0.548384 2.99561
lowerneck -16.5286 -2.22678 -3.67156
upperneck 25.6182 -3.61548 6.68291
head 11.2392 -1.00083 2.57844
rclavicle -6.95746e-015 8.34896e-015
rhumerus -90.8507 -48.1834 -656.525
rradius 23.3273
rwrist -14.4335
rhand -13.7605 15.1057
rfingers 7.12502
rthumb 12.36 -14.5089
lclavicle -6.95746e-015 8.34896e-015
lhumerus -106.245 44.9373 642.642
lradius 21.0292
lwrist 11.5239
lhand -4.47072 19.5215
lfingers 7.12502
lthumb 21.3019 48.3708
rfemur -20.1172 14.7137 17.2946
rtibia 13.4366
rfoot -17.5457 -24.7729
rtoes -10.351
lfemur -12.8737 1.52352 -13.7235
ltibia 1.59028e-015
lfoot -9.64105 -0.265299
ltoes -3.23683
1034
root 0.798252 17.7752 0.818587 -122.078 87.4579 -145.197
lowerback -9.74168 -1.41118 -0.616635
upperback -15.7196 -0.475363 2.50558
thorax -11.5317 0.543892 2.96652
lowerneck -16.4242 -2.19603 -3.66529
upperneck 25.6454 -3.57311 6.68366
head 11.2258 -0.980743 2.58484
rclavicle 6.95746e-015 -2.38542e-015
rhumerus -87.8088 -48.2134 -660.475
rradius 24.2077
rwrist -16.2422
rhand -14.7667 15.3672
rfingers 7.12502
rthumb 11.3898 -14.3035
lclavicle 6.95746e-015 -2.38542e-015
lhumerus -104.949 45.7414 644.066
lradius 21.7379
lwrist 13.0287
lhand -4.60978 19.6867
lfingers 7.12502
lthumb 21.1683 48.551
rfemur -20.113 14.6938 17.3075
rtibia 13.6182
rfoot -17.9494 -24.4803
rtoes -9.39543
lfemur -12.773 1.5903 -13.7399
ltibia 3.02153e-014
lfoot -9.67287 -0.324456
ltoes -2.65808
1035
root 0.793479 17.7776 0.816338 -122.534 87.5047 -145.588
lowerback -9.67811 -1.4013 -0.591967
upperback -15.6832 -0.47152 2.49032
thorax -11.5247 0.538053 2.93663
lowerneck -16.39 -2.14004 -3.52702
upperneck 25.6431 -3.4992 6.56357
head 11.2083 -0.949146 2.5274
rclavicle -9.0447e-015 1.27222e-014
rhumerus -84.9918 -48.1798 -664.251
rradius 25.2779
rwrist -17.8778
rhand -15.983 15.7358
rfingers 7.12502
rthumb 10.2166 -13.9961
lclavicle -9.0447e-015 1.27222e-014
lhumerus -101.238 46.679 649.011
lradius 22.7618
lwrist 16.9681
lhand -5.39439 20.1401
lfingers 7.12502
lthumb 20.4144 49.087
rfemur -20.0831 14.4296 17.3255
rtibia 13.6706
rfoot -17.7387 -24.3001
rtoes -9.92595
lfemur -12.7233 1.65729 -13.8233
ltibia 1.27222e-014
lfoot -9.52425 -0.362874
ltoes -3.4428
1036
root 0.78722 17.779 0.812975 -121.876 87.4687 -144.9
lowerback -9.61732 -1.38551 -0.431221
upperback -15.6618 -0.458986 2.48353
thorax -11.5362 0.523172 2.8401
lowerneck -16.3585 -2.06358 -3.39303
upperneck 25.6504 -3.4132 6.51218
head 11.196 -0.903132 2.4982
rclavicle -1.09332e-014 1.90833e-014
rhumerus -81.9063 -47.8759 -668.524
rradius 26.6328
rwrist -19.6342
rhand -17.4402 15.9346
rfingers 7.12502
rthumb 8.81053 -13.8615
lclavicle -1.09332e-014 1.90833e-014
lhumerus -97.1343 47.324 654.475
lradius 24.0152
lwrist 21.0764
lhand -5.91587 20.5937
lfingers 7.12502
lthumb 19.9132 49.5935
rfemur -19.9889 14.2322 17.4218
rtibia 13.548
rfoot -17.5681 -24.1333
rtoes -10.2114
lfemur -12.7163 1.72701 -13.8041
ltibia -3.18055e-014
lfoot -9.41126 -0.390651
ltoes -4.34642
1037
root 0.777956 17.7736 0.811289 -121.166 87.4145 -144.136
lowerback -9.52097 -1.38586 -0.292241
upperback -15.6166 -0.468418 2.51817
thorax -11.5384 0.50107 2.80131
lowerneck -16.4474 -1.99197 -3.31052
upperneck 25.7248 -3.30719 6.40746
head 11.2318 -0.857631 2.46242
rclavicle -1.30204e-014 3.1408e-014
rhumerus -78.7212 -47.3949 -673
rradius 28.1949
rwrist -21.3853
rhand -19.1425 16.1647
rfingers 7.12502
rthumb 7.16755 -13.694
lclavicle -1.30204e-014 3.1408e-014
lhumerus -94.3548 47.7773 658.2
lradius 25.4239
lwrist 23.9043
lhand -6.31859 20.9507
lfingers 7.12502
lthumb 19.5261 49.9902
rfemur -19.8305 14.0852 17.5544
rtibia 13.3245
rfoot -17.1034 -24.2087
rtoes -11.1875
lfemur -12.7015 1.79312 -13.754
ltibia 1.43125e-014
lfoot -9.3972 -0.436376
ltoes -5.682
1038
root 0.769328 17.7702 0.808126 -120.843 87.4187 -143.778
lowerback -9.45838 -1.38357 -0.172058
upperback -15.558 -0.47746 2.53325
thorax -11.5043 0.47858 2.75117
lowerneck -16.5744 -1.88274 -3.19561
upperneck 25.8238 -3.15153 6.28284
head 11.2809 -0.788081 2.42157
rclavicle -3.97569e-015 7.15625e-015
rhumerus -75.6359 -46.7356 -677.526
rradius 30.0119
rwrist -22.9288
rhand -21.0045 16.5009
rfingers 7.12502
rthumb 5.36995 -13.411
lclavicle -3.97569e-015 7.15625e-015
lhumerus -91.5793 48.0479 662.133
lradius 27.2635
lwrist 26.6253
lhand -7.22932 21.3714
lfingers 7.12502
lthumb 18.6503 50.4973
rfemur -19.7085 13.8954 17.6238
rtibia 13.1236
rfoot -16.5224 -24.3056
rtoes -12.8583
lfemur -12.6834 1.87399 -13.7695
ltibia -2.8625e-014
lfoot -9.48319 -0.540513
ltoes -7.37192
1039
root 0.762238 17.774 0.803836 -120.229 87.4088 -143.11
lowerback -9.34661 -1.38 -0.00362897
upperback -15.5207 -0.482344 2.55379
thorax -11.526 0.454696 2.6809
lowerneck -16.6668 -1.75342 -3.13991
upperneck 25.9322 -2.97342 6.24499
head 11.3284 -0.703066 2.42677
rclavicle 6.36111e-015 2.78299e-015
rhumerus -72.5664 -45.7177 -682.234
rradius 32.1607
rwrist -24.4541
rhand -22.8405 16.9288
rfingers 7.12502
rthumb 3.59709 -13.0206
lclavicle 6.36111e-015 2.78299e-015
lhumerus -87.5513 47.7481 667.969
lradius 29.5642
lwrist 30.0466
lhand -8.45339 22.2901
lfingers 7.12502
lthumb 17.4725 51.5249
rfemur -19.5581 13.7205 17.6965
rtibia 12.9298
rfoot -16.3454 -24.158
rtoes -13.0944
lfemur -12.6556 1.95518 -13.7739
ltibia 3.49861e-014
lfoot -9.4682 -0.617618
ltoes -8.20247
1040
root 0.754618 17.7751 0.798237 -120.643 87.3956 -143.509
lowerback -9.33806 -1.38087 0.13381
upperback -15.4414 -0.498083 2.56582
thorax -11.4352 0.42567 2.61692
lowerneck -16.7467 -1.61261 -2.95717
upperneck 25.9107 -2.76659 6.03209
head 11.3179 -0.619257 2.34601
rclavicle -1.85864e-014 1.94809e-014
rhumerus -69.4994 -44.2203 -687.224
rradius 34.6488
rwrist -26.2145
rhand -24.5462 17.1849
rfingers 7.12502
rthumb 1.94983 -12.7859
lclavicle -1.85864e-014 1.94809e-014
lhumerus -83.3902 46.9495 674.273
lradius 32.1738
lwrist 33.4328
lhand -9.3414 22.6482
lfingers 7.12502
lthumb 16.6178 51.9568
rfemur -19.5245 13.5115 17.7274
rtibia 12.8689
rfoot -16.2948 -24.0003
rtoes -12.9163
lfemur -12.6898 1.9964 -13.8063
ltibia -3.33958e-014
lfoot -9.41383 -0.698545
ltoes -8.32765
1041
root 0.744732 17.7758 0.794892 -119.556 87.3235 -142.359
lowerback -9.27369 -1.38234 0.333292
upperback -15.3279 -0.518288 2.61767
thorax -11.3369 0.38798 2.56212
lowerneck -16.9491 -1.46412 -2.79307
upperneck 25.9837 -2.54392 5.81262
head 11.368 -0.527957 2.27095
rclavicle 8.44835e-015 -3.29983e-014
rhumerus -66.7777 -42.6087 -691.932
rradius 37.3619
rwrist -27.7027
rhand -26.2915 17.532
rfingers 7.12502
rthumb 0.264163 -12.4475
lclavicle 8.44835e-015 -3.29983e-014
lhumerus -79.5536 45.7032 680.479
lradius 35.1365
lwrist 36.5997
lhand -10.664 22.215
lfingers 7.12502
lthumb 15.3442 51.6256
rfemur -19.5222 13.5669 17.8222
rtibia 12.9188
rfoot -16.2515 -24.1029
rtoes -13.0887
lfemur -12.6881 2.07162 -13.7286
ltibia -4.92986e-014
lfoot -9.24277 -0.806566
ltoes -7.88477
1042
root 0.734249 17.7772 0.791332 -119.389 87.3899 -142.115
lowerback -9.16158 -1.37687 0.393175
upperback -15.2104 -0.532223 2.62624
thorax -11.2601 0.364862 2.53855
lowerneck -17.1677 -1.31916 -2.7176
upperneck 26.0358 -2.34397 5.7506
head 11.419 -0.436032 2.26598
rclavicle -5.56597e-015 8.34896e-015
rhumerus -64.4925 -40.8928 -696.276
rradius 40.2774
rwrist -28.8621
rhand -28.0541 18.0915
rfingers 7.12502
rthumb -1.43817 -11.8834
lclavicle -5.56597e-015 8.34896e-015
lhumerus -75.8803 43.9196 686.793
lradius 38.354
lwrist 39.848
lhand -11.8632 21.7392
lfingers 7.12502
lthumb 14.1888 51.2346
rfemur -19.5231 13.5887 17.7692
rtibia 12.9762
rfoot -16.1506 -24.1332
rtoes -13.4786
lfemur -12.6644 2.16955 -13.8172
ltibia -2.06736e-014
lfoot -9.09384 -0.888587
ltoes -6.84788
1043
root 0.725484 17.7779 0.786502 -118.627 87.4903 -141.296
lowerback -9.05687 -1.32444 0.484975
upperback -15.1222 -0.479996 2.6068
thorax -11.2182 0.371691 2.46646
lowerneck -17.3307 -1.1902 -2.71221
upperneck 26.107 -2.16207 5.7497
head 11.469 -0.350982 2.29385
rclavicle 1.48095e-014 -2.98177e-014
rhumerus -62.6029 -38.8693 -700.29
rradius 43.3184
rwrist -29.5656
rhand -29.497 18.7761
rfingers 7.12502
rthumb -2.83165 -11.1849
lclavicle 1.48095e-014 -2.98177e-014
lhumerus -72.5517 41.7691 692.869
lradius 41.6473
lwrist 42.7054
lhand -12.6676 21.1623
lfingers 7.12502
lthumb 13.4136 50.7104
rfemur -19.5387 13.5402 17.7089
rtibia 13.0221
rfoot -16.1718 -24.0286
rtoes -13.3569
lfemur -12.6266 2.31227 -13.9074
ltibia -1.59028e-015
lfoot -9.00222 -1.08019
ltoes -5.02589
